# xmcd
# 
# Track frame offsets:
#     150
#     19252
#     38315
#     57370
# 
# Disc length: 1016
# 
# Revision: 1
# Processed by: cddbd v1.5.2PL0 Copyright (c) Steve Scherf et al.
# Submitted via: BonkEnc v1.0.8
# 
DISCID=2603f604
DTITLE=Lazy - Ultra High
DYEAR=0
DGENRE=Heavy Metal
TTITLE0=Ultra High
TTITLE1=Everybody Wants Love
TTITLE2=Ultra High (オリジナル・カラオケ)
TTITLE3=Everybody Wants Love (オリジナル・カラオケ)
EXTD=
EXTT0=
EXTT1=
EXTT2=
EXTT3=
PLAYORDER=
